<svg width="80" height="80" viewBox="0 0 80 80" fill="none" xmlns="http://www.w3.org/2000/svg">
<path d="M28.5714 37.1429H8.57143C3.84571 37.1429 0 33.2971 0 28.5714V8.57143C0 3.84571 3.84571 0 8.57143 0H28.5714C33.2971 0 37.1429 3.84571 37.1429 8.57143V28.5714C37.1429 33.2971 33.2971 37.1429 28.5714 37.1429ZM8.57143 5.71429C6.99714 5.71429 5.71429 6.99714 5.71429 8.57143V28.5714C5.71429 30.1457 6.99714 31.4286 8.57143 31.4286H28.5714C30.1457 31.4286 31.4286 30.1457 31.4286 28.5714V8.57143C31.4286 6.99714 30.1457 5.71429 28.5714 5.71429H8.57143Z" fill="#DCDCDC"/>
<path d="M28.5714 79.9999H8.57143C3.84571 79.9999 0 76.1542 0 71.4285V51.4285C0 46.7028 3.84571 42.8571 8.57143 42.8571H28.5714C33.2971 42.8571 37.1429 46.7028 37.1429 51.4285V71.4285C37.1429 76.1542 33.2971 79.9999 28.5714 79.9999ZM8.57143 48.5713C6.99714 48.5713 5.71429 49.8542 5.71429 51.4285V71.4285C5.71429 73.0028 6.99714 74.2856 8.57143 74.2856H28.5714C30.1457 74.2856 31.4286 73.0028 31.4286 71.4285V51.4285C31.4286 49.8542 30.1457 48.5713 28.5714 48.5713H8.57143Z" fill="#DCDCDC"/>
<path d="M71.4289 79.9999H51.4289C46.7031 79.9999 42.8574 76.1542 42.8574 71.4285V51.4285C42.8574 46.7028 46.7031 42.8571 51.4289 42.8571H71.4289C76.1546 42.8571 80.0003 46.7028 80.0003 51.4285V71.4285C80.0003 76.1542 76.1546 79.9999 71.4289 79.9999ZM51.4289 48.5713C49.8546 48.5713 48.5717 49.8542 48.5717 51.4285V71.4285C48.5717 73.0028 49.8546 74.2856 51.4289 74.2856H71.4289C73.0031 74.2856 74.286 73.0028 74.286 71.4285V51.4285C74.286 49.8542 73.0031 48.5713 71.4289 48.5713H51.4289Z" fill="#DCDCDC"/>
<path d="M77.1431 14.2857H64.286V2.85714C64.286 1.28 63.006 0 61.4289 0C59.8517 0 58.5717 1.28 58.5717 2.85714V14.2857H45.7146C44.1374 14.2857 42.8574 15.5657 42.8574 17.1429C42.8574 18.72 44.1374 20 45.7146 20H58.5717V34.2857C58.5717 35.8629 59.8517 37.1429 61.4289 37.1429C63.006 37.1429 64.286 35.8629 64.286 34.2857V20H77.1431C78.7203 20 80.0003 18.72 80.0003 17.1429C80.0003 15.5657 78.7203 14.2857 77.1431 14.2857Z" fill="#DCDCDC"/>
</svg>
