<svg width="133" height="116" viewBox="0 0 133 116" fill="none" xmlns="http://www.w3.org/2000/svg">
<path d="M42.5716 69.8699H12.4678V98.1845H42.5716V69.8699Z" fill="#9E9E9E"/>
<path d="M83.0985 43.9408H52.9946V98.1845H83.0985V43.9408Z" fill="#9E9E9E"/>
<path d="M7.38389 0H0V112.527C0.00498988 113.364 0.392302 114.166 1.07921 114.762C1.77927 115.345 2.71493 115.675 3.69212 115.685H132.428V109.37H7.46917L7.38389 0Z" fill="#9E9E9E"/>
<path d="M107.182 96.9068L124.363 75.1809V69.4725L102.694 96.9068H107.182Z" fill="#CCCCCC"/>
<path d="M101.501 96.9068L124.363 68.0242V62.3158L97.0142 96.9068H101.501Z" fill="#CCCCCC"/>
<path d="M94.3745 14.3484V20L98.8333 14.3484H94.3745Z" fill="#CCCCCC"/>
<path d="M124.365 26.5037L94.3745 64.4175V70.1259L124.365 32.2121V26.5037Z" fill="#CCCCCC"/>
<path d="M124.365 33.6886L94.3745 71.574V77.2824L124.365 39.3686V33.6886Z" fill="#CCCCCC"/>
<path d="M124.365 60.839V55.159L94.3745 93.0728V96.9068H95.8513L124.365 60.839Z" fill="#CCCCCC"/>
<path d="M124.365 19.3468L94.3745 57.2606V62.969L124.365 25.0552V19.3468Z" fill="#CCCCCC"/>
<path d="M124.365 48.0023L94.3745 85.9161V91.5961L124.365 53.6823V48.0023Z" fill="#CCCCCC"/>
<path d="M99.9977 14.3484L94.3745 21.4484V27.1568L104.485 14.3484H99.9977Z" fill="#CCCCCC"/>
<path d="M124.365 40.8455L94.3745 78.7592V84.4392L124.365 46.5254V40.8455Z" fill="#CCCCCC"/>
<path d="M111.329 14.3484L94.3745 35.7903V41.4703L115.816 14.3484H111.329Z" fill="#CCCCCC"/>
<path d="M118.511 96.9068L124.361 89.4944V83.8145L113.995 96.9068H118.511Z" fill="#CCCCCC"/>
<path d="M124.163 96.9068L124.362 96.6512V90.9712L119.676 96.9068H124.163Z" fill="#CCCCCC"/>
<path d="M116.981 14.3484L94.3745 42.9471V48.6271L121.468 14.3484H116.981Z" fill="#CCCCCC"/>
<path d="M112.833 96.9067L124.363 82.3376V76.6577L108.346 96.9067H112.833Z" fill="#CCCCCC"/>
<path d="M105.649 14.3484L94.3745 28.6336V34.3135L110.165 14.3484H105.649Z" fill="#CCCCCC"/>
<path d="M124.365 14.3484H122.632L94.3745 50.1038V55.7838L124.365 17.87V14.3484Z" fill="#CCCCCC"/>
<path d="M98.8333 14.3484L94.3745 20V21.4484L99.9977 14.3484H98.8333Z" fill="white"/>
<path d="M104.485 14.3484L94.3745 27.1568V28.6336L105.649 14.3484H104.485Z" fill="white"/>
<path d="M110.165 14.3484L94.3745 34.3135V35.7903L111.329 14.3484H110.165Z" fill="white"/>
<path d="M115.816 14.3484L94.3745 41.4703V42.9471L116.981 14.3484H115.816Z" fill="white"/>
<path d="M121.468 14.3484L94.3745 48.6271V50.1039L122.632 14.3484H121.468Z" fill="white"/>
<path d="M124.365 17.8699L94.3745 55.7837V57.2605L124.365 19.3467V17.8699Z" fill="white"/>
<path d="M124.365 25.0553L94.3745 62.9691V64.4175L124.365 26.5037V25.0553Z" fill="white"/>
<path d="M124.365 32.212L94.3745 70.1258V71.5742L124.365 33.6888V32.212Z" fill="white"/>
<path d="M124.365 39.3686L94.3745 77.2824V78.7592L124.365 40.8454V39.3686Z" fill="white"/>
<path d="M124.365 46.5254L94.3745 84.4392V85.916L124.365 48.0022V46.5254Z" fill="white"/>
<path d="M124.365 53.6821L94.3745 91.5959V93.0727L124.365 55.1589V53.6821Z" fill="white"/>
<path d="M97.014 96.9069L124.363 62.3159V60.8391L95.8496 96.9069H97.014Z" fill="white"/>
<path d="M102.695 96.9069L124.364 69.4726V68.0242L101.502 96.9069H102.695Z" fill="white"/>
<path d="M108.347 96.9066L124.364 76.6575V75.1807L107.182 96.9066H108.347Z" fill="white"/>
<path d="M113.998 96.9066L124.364 83.8143V82.3375L112.834 96.9066H113.998Z" fill="white"/>
<path d="M119.679 96.9066L124.365 90.9711V89.4943L118.514 96.9066H119.679Z" fill="white"/>
</svg>
