<svg width="77" height="65" viewBox="0 0 77 65" fill="none" xmlns="http://www.w3.org/2000/svg">
<g clip-path="url(#clip0_1751_76)">
<path d="M66.7364 29.6178L61.5929 28.5519V7.13413C61.5929 5.56878 61.2415 5.20186 59.7306 5.20186H6.96279C5.50119 5.20186 5.13472 5.57964 5.13472 7.08637V47.551C5.13472 49.0316 5.50976 49.4051 6.99494 49.4051H41.0105C41.3726 51.1745 41.7155 52.8593 42.0713 54.6048H4.35248C1.52143 54.6048 0.00409624 53.0612 0.00195312 50.1845V4.43765C0.00195312 1.51755 1.50213 0.00213623 4.41463 0.00213623H62.3216C65.2234 0.00213623 66.7343 1.52189 66.7343 4.43765C66.7343 12.5633 66.7343 20.6889 66.7343 28.8145L66.7364 29.6178Z" fill="#9E9E9E"/>
<path d="M55.2303 29.2423C46.8722 32.1125 42.1766 37.9158 41.0686 46.7521H7.70032V45.9488C7.70032 42.258 7.68532 38.5845 7.72176 34.9023C7.73453 34.4335 7.8961 33.9812 8.18253 33.6127C10.4649 30.8902 12.7902 28.2024 15.1026 25.5037C16.9543 23.3326 19.7232 23.3696 21.532 25.5949C23.5015 28.0178 25.4453 30.4646 27.3998 32.9006C27.5477 33.0851 27.7042 33.2632 27.9142 33.5107C28.9986 32.182 30.0573 30.9054 31.1031 29.6027C34.0621 25.9727 37.0231 22.3426 39.9864 18.7126C41.9666 16.294 44.7012 16.2983 46.6729 18.7126C49.3503 21.9866 52.0235 25.262 54.6924 28.5389C54.8596 28.7517 55.0182 28.9666 55.2303 29.2423Z" fill="#CCCCCC"/>
<path d="M43.6383 48.0308C43.6212 38.8016 51.1156 31.2375 60.3096 31.205C69.4372 31.1702 76.9788 38.7668 77.0024 48.0134C77.0238 57.3491 69.5657 64.9935 60.4082 65C58.2046 65.0109 56.0206 64.5796 53.9824 63.7309C51.9442 62.8822 50.092 61.633 48.5329 60.0553C46.9738 58.4777 45.7385 56.6028 44.8984 54.539C44.0584 52.4752 43.6301 50.2632 43.6383 48.0308V48.0308ZM56.4691 48.1046C56.4691 51.5154 56.4691 54.8133 56.4691 58.1111C56.4691 59.3769 56.8978 59.8024 58.1622 59.8046C59.6038 59.8046 61.0461 59.8046 62.4892 59.8046C63.7407 59.8046 64.1672 59.3704 64.1672 58.0959C64.1672 55.0651 64.1672 52.035 64.1672 49.0056V48.1046C65.0245 48.1046 65.7788 48.1893 66.5075 48.0742C66.979 48.0004 67.6026 47.7377 67.7934 47.3665C67.9841 46.9952 67.8855 46.2809 67.6326 45.8988C65.631 42.9613 63.5607 40.0673 61.5098 37.1711C60.809 36.1854 59.836 36.1724 59.1523 37.145C57.0735 40.0608 55.0011 42.9809 52.9801 45.9357C52.738 46.2918 52.6308 46.9909 52.8173 47.3296C53.0316 47.7073 53.6188 47.9982 54.0839 48.0721C54.8211 48.1915 55.6119 48.1046 56.4691 48.1046Z" fill="#9E9E9E"/>
<path d="M28.4926 20.1606C27.8172 20.1658 27.1475 20.0352 26.5223 19.7762C25.897 19.5173 25.3288 19.1352 24.8503 18.6522C24.3719 18.1692 23.9929 17.5947 23.7352 16.9622C23.4775 16.3297 23.3463 15.6517 23.3492 14.9674C23.3492 13.5855 23.8911 12.2602 24.8557 11.283C25.8202 10.3058 27.1285 9.75684 28.4926 9.75684C29.8482 9.76541 31.1457 10.3158 32.1028 11.2883C33.06 12.2608 33.5995 13.5768 33.604 14.9501C33.6082 15.6328 33.4791 16.3096 33.2242 16.9416C32.9692 17.5736 32.5934 18.1483 32.1183 18.6325C31.6433 19.1168 31.0784 19.5011 30.4561 19.7634C29.8339 20.0257 29.1666 20.1607 28.4926 20.1606V20.1606Z" fill="#CCCCCC"/>
</g>
<defs>
<clipPath id="clip0_1751_76">
<rect width="77" height="65" fill="white"/>
</clipPath>
</defs>
</svg>
