<svg width="125" height="124" viewBox="0 0 125 124" fill="none" xmlns="http://www.w3.org/2000/svg">
<path d="M68.0928 48.5081L102.178 13.4307C92.8365 5.21133 80.865 0.601371 68.4235 0.432495L68.0928 48.5081Z" fill="#9E9E9E"/>
<path d="M116.195 91.2162L60.5904 61.7859V0H59.344C25.2078 0 0 27.6752 0 61.8113C0 78.2047 6.51226 93.9266 18.1041 105.519C29.696 117.11 45.4179 123.623 61.8113 123.623C85.7473 123.597 108.005 109.454 116.195 91.2162Z" fill="#9E9E9E"/>
<path d="M100.119 26.4288L91.216 35.5861L82.2622 64.1007L87.4259 66.8733L100.119 26.4288Z" fill="#CCCCCC"/>
<path d="M88.5964 38.2825L79.6681 47.4397L75.5728 60.5142L80.7364 63.2868L88.5964 38.2825Z" fill="#CCCCCC"/>
<path d="M102.357 74.8605L107.445 77.633L119.985 37.7227C118.93 35.1557 117.698 32.6654 116.297 30.2698L102.357 74.8605Z" fill="#CCCCCC"/>
<path d="M123.596 51.077C123.121 47.4041 122.268 43.7899 121.052 40.2919L109.097 78.447L114.184 81.1942L123.596 51.077Z" fill="#CCCCCC"/>
<path d="M124.106 55.376L115.737 82.0338L118.764 83.6363C122.562 75.7071 124.419 66.9882 124.182 58.1996C124.182 57.2839 124.157 56.3426 124.106 55.376Z" fill="#CCCCCC"/>
<path d="M102.764 23.7326L88.9517 67.6874L94.039 70.4601L109.555 21.0363C108.869 20.2732 108.182 19.5101 107.47 18.7979L102.764 23.7326Z" fill="#CCCCCC"/>
<path d="M74.0476 59.7L77.0491 50.1357L69.9014 57.487L74.0476 59.7Z" fill="#CCCCCC"/>
<path d="M95.6172 71.2738L100.705 74.0464L115.051 28.2602C113.768 26.2455 112.367 24.3088 110.854 22.4606L95.6172 71.2738Z" fill="#CCCCCC"/>
</svg>
