<svg width="159" height="124" viewBox="0 0 159 124" fill="none" xmlns="http://www.w3.org/2000/svg">
<path d="M4.43525 104.66H153.708C154.29 104.66 154.867 104.546 155.405 104.325C155.943 104.104 156.432 103.779 156.844 103.371C157.256 102.962 157.582 102.477 157.805 101.943C158.028 101.409 158.143 100.837 158.143 100.259V4.4006C158.136 3.23563 157.666 2.12036 156.836 1.2966C156.006 0.472829 154.882 0.00695518 153.708 0H4.43525C3.25897 0 2.13079 0.463641 1.29904 1.28891C0.467283 2.11418 0 3.23349 0 4.4006V100.259C0 101.426 0.467283 102.546 1.29904 103.371C2.13079 104.196 3.25897 104.66 4.43525 104.66V104.66ZM10.0727 9.56991H148.204V88.5684H10.0727V9.56991Z" fill="#9E9E9E"/>
<path d="M100.325 107.364C100.085 106.887 99.7908 106.648 99.5236 106.648H58.6186C58.3515 106.648 58.0576 106.887 57.7904 107.364L52.2865 116.987C51.0575 119.107 50.9774 123.428 52.2865 123.428H106.069C107.272 123.428 107.165 119.107 106.069 116.987L100.325 107.364Z" fill="#9E9E9E"/>
<path d="M148.203 9.57007H10.0723V88.5686H148.203V9.57007ZM15.87 59.1164H46.0611V62.5892H15.87V59.1164ZM78.0691 83.2932H15.87V65.7704H78.0691V83.2932ZM78.0691 62.5892H47.878V59.1164H78.0691V62.5892ZM112.348 81.7291H79.9927V79.0781H112.401L112.348 81.7291ZM142.165 77.2225H79.9927V74.5715H142.219L142.165 77.2225ZM142.165 72.7158H79.9927V70.0649H142.219L142.165 72.7158ZM142.165 68.1827H79.9927V65.5318H142.219L142.165 68.1827ZM79.9394 62.5892V59.1164H110.131V62.5892H79.9394ZM142.192 62.5892H112.081V59.1164H142.245L142.192 62.5892ZM142.192 56.2004H15.8167V15.9854H142.192V56.2004Z" fill="white"/>
<path d="M142.272 15.8793H15.897V56.2003H142.272V15.8793Z" fill="#AEAEAE"/>
<path d="M46.0881 59.0897H15.897V62.5625H46.0881V59.0897Z" fill="#C8C8C8"/>
<path d="M78.096 65.7703H15.897V83.2666H78.096V65.7703Z" fill="#CCCCCC"/>
<path d="M78.1491 59.0897H47.958V62.5625H78.1491V59.0897Z" fill="#C8C8C8"/>
<path d="M110.211 59.0897H80.0195V62.5625H110.211V59.0897Z" fill="#CCCCCC"/>
<path d="M142.219 65.5582H80.0195V68.1827H142.219V65.5582Z" fill="#AEAEAE"/>
<path d="M142.219 70.0648H80.0195V72.6893H142.219V70.0648Z" fill="#AEAEAE"/>
<path d="M142.219 74.5714H80.0195V77.1959H142.219V74.5714Z" fill="#AEAEAE"/>
<path d="M112.428 79.1045H80.0195V81.7289H112.428V79.1045Z" fill="#AEAEAE"/>
<path d="M142.273 59.0897H112.082V62.5625H142.273V59.0897Z" fill="#CCCCCC"/>
<path d="M70.189 23.1428H70.7916C71.3723 23.2604 71.9303 23.4708 72.4442 23.7657C78.1074 27.0211 83.7693 30.2765 89.4299 33.5318C89.8432 33.7676 90.2245 34.0556 90.5644 34.3886C91.4791 35.2925 91.5183 36.4597 90.7116 37.456C90.35 37.8742 89.9133 38.2207 89.4241 38.4778C83.7674 41.7253 78.1088 44.9715 72.4482 48.2164C72.0352 48.4512 71.5948 48.6341 71.137 48.7607C69.9103 49.0967 68.8583 48.5367 68.4009 47.3538C68.2108 46.8074 68.1243 46.2302 68.1458 45.6521C68.1458 39.2173 68.1458 32.7819 68.1458 26.3458C68.1431 26.0865 68.1562 25.8273 68.185 25.5696C68.2655 24.8642 68.4795 24.2157 69.0074 23.7048C69.342 23.412 69.7509 23.2175 70.189 23.1428V23.1428Z" fill="white"/>
</svg>
