<svg width="133" height="102" viewBox="0 0 133 102" fill="none" xmlns="http://www.w3.org/2000/svg">
<path d="M131.005 2.08691H2.15039V23.1432H131.005V2.08691Z" fill="#C8C8C8"/>
<path d="M65.7196 21.0924H35.418V99.119H65.7196V21.0924Z" fill="#CCCCCC"/>
<path d="M128.95 21.0924H98.6484V99.119H128.95V21.0924Z" fill="#CCCCCC"/>
<path d="M132.258 1.94583V100.057C131.535 101.55 130.305 102 128.701 102C87.1365 101.98 45.5736 101.974 4.0118 101.98C1.34171 101.98 0.460449 101.094 0.460449 98.4398V3.56352C0.460449 0.908927 1.34171 0.0196884 4.0118 0.0196884C45.5758 0.0196884 87.1387 0.0131253 128.701 0C130.305 0 131.535 0.449542 132.258 1.94583ZM126.826 5.41091H5.78748V6.99907C5.78748 10.4204 5.78748 13.8439 5.78748 17.2696C5.78748 19.2614 5.78748 19.2647 7.8032 19.2647H124.876C125.175 19.2466 125.475 19.2466 125.774 19.2647C126.701 19.3664 126.938 18.9168 126.931 18.0604C126.899 14.1655 126.931 10.2705 126.931 6.3789C126.922 6.06717 126.866 5.77842 126.826 5.41091ZM37.4669 82.7091V96.6318H63.6482V82.7091H37.4669ZM95.2816 96.6843V82.7485H69.0871V96.6843H95.2816ZM5.81707 38.5523H32.0116V24.692H5.81707V38.5523ZM63.668 24.7281H37.4735V38.5523H63.668V24.7281ZM95.2586 38.6179V24.7051H69.0772V38.6146L95.2586 38.6179ZM100.737 24.6821V38.5523H126.866V24.6789L100.737 24.6821ZM5.82036 77.3179H32.0149V63.3854H5.82036V77.3179ZM37.4077 77.2719H63.6515V63.4116H37.4077V77.2719ZM69.0509 77.2916H95.2816V63.3887H69.0739L69.0509 77.2916ZM126.905 63.3919H100.704V77.3146H126.905V63.3919ZM5.81379 96.6318H31.9853V82.7321H5.81379V96.6318ZM126.908 82.7485H100.707V96.6843H126.908V82.7485ZM32.0543 44.0584H5.81379V57.8695H32.0543V44.0584ZM37.4307 57.9121H63.6318V44.0288H37.4307V57.9121ZM69.0608 57.8891H95.2816V44.0452H69.0641L69.0608 57.8891ZM126.866 57.9449V44.0354H100.737V57.9351L126.866 57.9449Z" fill="#9E9E9E"/>
<path d="M37.6515 15.0613H13.6009C11.1676 15.0613 9.85225 14.0769 9.88842 12.3115C9.92459 10.5888 11.2037 9.66021 13.5746 9.66021C29.6938 9.66021 45.8141 9.66021 61.9355 9.66021C62.5332 9.64747 63.1298 9.71815 63.7079 9.87022C64.2362 9.99549 64.7065 10.2956 65.042 10.7216C65.3776 11.1476 65.5587 11.6745 65.5559 12.2164C65.618 12.777 65.4817 13.3417 65.1706 13.8127C64.8596 14.2836 64.3933 14.6313 63.8526 14.7955C63.2393 14.9818 62.5992 15.0649 61.9585 15.0416C53.8562 15.0613 45.7538 15.0678 37.6515 15.0613Z" fill="#9E9E9E"/>
<path d="M75.0743 15.0514C74.1306 15.0514 73.1835 15.1007 72.2431 15.0514C70.599 14.9432 69.504 13.8636 69.4875 12.4001C69.4711 10.9367 70.4477 9.83741 72.0655 9.73569C74.0365 9.60894 76.0135 9.60894 77.9844 9.73569C79.6746 9.85053 80.6151 11.0187 80.5296 12.5379C80.4507 13.9588 79.405 14.9432 77.7839 15.0482C76.8664 15.0974 75.972 15.0514 75.0743 15.0514Z" fill="#9E9E9E"/>
</svg>
