<svg width="134" height="119" viewBox="0 0 134 119" fill="none" xmlns="http://www.w3.org/2000/svg">
<path d="M8.30327 118.286H125.411C127.608 118.286 129.716 117.412 131.272 115.857C132.828 114.301 133.707 112.191 133.714 109.987V41.1768H5.0764e-05V109.987C-0.00377411 111.08 0.20858 112.163 0.624859 113.174C1.04114 114.184 1.65302 115.102 2.4252 115.874C3.19737 116.646 4.11451 117.256 5.12346 117.67C6.13242 118.084 7.21317 118.293 8.30327 118.286V118.286ZM106.793 46.7667H125.928V63.8542H106.793V46.7667ZM106.793 68.5799H125.928V85.6381H106.793V68.5799ZM82.0272 46.7667H101.191V63.8542H81.9409L82.0272 46.7667ZM82.0272 68.5799H101.191V85.6381H81.9409L82.0272 68.5799ZM82.0272 90.3638H101.191V107.451H81.9409L82.0272 90.3638ZM57.2896 46.7667H76.4246V63.8542H57.2896V46.7667ZM57.2896 68.5799H76.4246V85.6381H57.2896V68.5799ZM57.2896 90.3638H76.4246V107.451H57.2896V90.3638ZM32.5235 46.7667H51.687V63.8542H32.5235V46.7667ZM32.5235 68.5799H51.687V85.6381H32.5235V68.5799ZM32.5235 90.3638H51.687V107.451H32.5235V90.3638ZM7.78613 68.5799H26.9209V85.6381H7.78613V68.5799ZM7.78613 90.3638H26.9209V107.451H7.78613V90.3638Z" fill="#9E9E9E"/>
<path d="M133.714 33.2524H0V38.1798H133.714V33.2524Z" fill="#CCCCCC"/>
<path d="M133.657 17.8942C133.649 15.6906 132.771 13.5799 131.215 12.0244C129.658 10.4689 127.551 9.59545 125.353 9.59546H111.304V20.4876C111.312 21.4416 110.952 22.3615 110.299 23.0547C109.645 23.7478 108.749 24.16 107.799 24.2047H100.07C99.5886 24.2085 99.111 24.1166 98.665 23.9344C98.219 23.7522 97.8134 23.4833 97.4715 23.1431C97.1296 22.8029 96.8583 22.3982 96.6731 21.9523C96.4879 21.5064 96.3927 21.0281 96.3927 20.5451V9.65315H37.4366V20.5451C37.429 21.5183 37.0382 22.4492 36.3493 23.1347C35.6605 23.8202 34.7293 24.2047 33.7589 24.2047H26.0303C25.5487 24.2085 25.0711 24.1166 24.6251 23.9344C24.1791 23.7522 23.7735 23.4833 23.4316 23.1431C23.0897 22.8029 22.8184 22.3982 22.6333 21.9523C22.4481 21.5064 22.3528 21.0281 22.3528 20.5451V9.65315H8.30327C7.21317 9.64552 6.13242 9.85471 5.12346 10.2687C4.11451 10.6827 3.19737 11.2933 2.4252 12.0651C1.65302 12.8368 1.04114 13.7544 0.624859 14.7649C0.20858 15.7754 -0.00377411 16.8586 5.0764e-05 17.9519V27.6337H133.657V17.8942Z" fill="#CCCCCC"/>
<path d="M133.714 27.5471H0V33.2525H133.714V27.5471Z" fill="#CCCCCC"/>
<path d="M26.0308 20.4587H33.7594V9.56658V0H26.0308V9.56658V20.4587Z" fill="#9E9E9E"/>
<path d="M99.9556 20.4587H107.684V9.56658V0H99.9556V9.56658V20.4587Z" fill="#9E9E9E"/>
<path d="M51.6583 46.7667H32.5234V63.854H51.6583V46.7667Z" fill="#C8C8C8"/>
<path d="M76.4244 46.7667H57.2896V63.854H76.4244V46.7667Z" fill="#CCCCCC"/>
<path d="M101.162 46.7667H82.0269V63.854H101.162V46.7667Z" fill="#CCCCCC"/>
<path d="M125.928 46.7667H106.793V63.854H125.928V46.7667Z" fill="#C8C8C8"/>
<path d="M26.9205 68.5509H7.78564V85.6382H26.9205V68.5509Z" fill="#CCCCCC"/>
<path d="M51.6583 68.5509H32.5234V85.6382H51.6583V68.5509Z" fill="#CCCCCC"/>
<path d="M76.4244 68.5509H57.2896V85.6382H76.4244V68.5509Z" fill="#CCCCCC"/>
<path d="M101.162 68.5509H82.0269V85.6382H101.162V68.5509Z" fill="#CCCCCC"/>
<path d="M125.928 68.5509H106.793V85.6382H125.928V68.5509Z" fill="#CCCCCC"/>
<path d="M26.9205 90.3639H7.78564V107.451H26.9205V90.3639Z" fill="#CCCCCC"/>
<path d="M51.6583 90.3639H32.5234V107.451H51.6583V90.3639Z" fill="#CCCCCC"/>
<path d="M76.4244 90.3639H57.2896V107.451H76.4244V90.3639Z" fill="#C8C8C8"/>
<path d="M101.162 90.3639H82.0269V107.451H101.162V90.3639Z" fill="#CCCCCC"/>
</svg>
