<svg width="134" height="118" viewBox="0 0 134 118" fill="none" xmlns="http://www.w3.org/2000/svg">
<path d="M131.383 38.9506V21.8417C131.383 17.3951 127.776 13.791 123.332 13.791H115.965V20.083C115.965 23.0954 113.523 25.5398 110.51 25.5398C107.498 25.5398 105.053 23.0954 105.053 20.083V13.791H87.073V20.083C87.073 23.0954 84.6312 25.5398 81.6188 25.5398C78.6064 25.5398 76.1646 23.0954 76.1646 20.083V13.791H58.1843V20.083C58.1843 23.0954 55.7424 25.5398 52.7274 25.5398C49.715 25.5398 47.2732 23.0954 47.2732 20.083V13.791H29.2929V20.083C29.2929 23.0954 26.851 25.5398 23.8387 25.5398C20.8263 25.5398 18.3844 23.0954 18.3844 20.083V13.791H10.6705C6.22367 13.791 2.61719 17.3951 2.61719 21.8417V38.9506H131.383Z" fill="#C8C8C8"/>
<path d="M2.62012 38.9506V107.183C2.62012 111.628 6.22425 115.233 10.6703 115.233H123.331C127.777 115.233 131.381 111.629 131.381 107.183V38.9506H2.62012Z" fill="white"/>
<path d="M23.8378 25.5388C20.8657 25.5257 18.3828 23.066 18.3828 20.084V8.07217C18.3828 5.05953 20.8249 2.61743 23.8376 2.61743C26.8502 2.61743 29.2923 5.05953 29.2923 8.07217V20.084C29.2926 23.0964 26.8505 25.5388 23.8378 25.5388Z" fill="white"/>
<path d="M52.728 25.5388C49.7153 25.5388 47.2729 23.0967 47.2729 20.084V8.07217C47.2729 5.05953 49.715 2.61743 52.7277 2.61743C55.7403 2.61743 58.1824 5.05953 58.1824 8.07217V20.084C58.1827 23.0964 55.7406 25.5388 52.728 25.5388Z" fill="white"/>
<path d="M81.6186 25.5388C78.6465 25.5257 76.1636 23.066 76.1636 20.084V8.07217C76.1636 5.05953 78.6059 2.61743 81.6183 2.61743C84.631 2.61743 87.0731 5.05953 87.0731 8.07217V20.084C87.0733 23.0964 84.6312 25.5388 81.6186 25.5388Z" fill="white"/>
<path d="M110.509 25.5388C107.497 25.5388 105.054 23.0967 105.054 20.084V8.07217C105.054 5.05953 107.496 2.61743 110.509 2.61743C113.522 2.61743 115.964 5.05953 115.964 8.07217V20.084C115.964 23.0964 113.522 25.5388 110.509 25.5388Z" fill="white"/>
<path d="M37.2097 63.7547C40.6749 63.7547 43.4839 60.9456 43.4839 57.4805C43.4839 54.0153 40.6749 51.2063 37.2097 51.2063C33.7446 51.2063 30.9355 54.0153 30.9355 57.4805C30.9355 60.9456 33.7446 63.7547 37.2097 63.7547Z" fill="#C8C8C8"/>
<path d="M70.406 63.7547C73.8712 63.7547 76.6802 60.9456 76.6802 57.4805C76.6802 54.0153 73.8712 51.2063 70.406 51.2063C66.9409 51.2063 64.1318 54.0153 64.1318 57.4805C64.1318 60.9456 66.9409 63.7547 70.406 63.7547Z" fill="#C8C8C8"/>
<path d="M54.2649 102.978C57.73 102.978 60.5391 100.169 60.5391 96.7043C60.5391 93.2392 57.73 90.4301 54.2649 90.4301C50.7998 90.4301 47.9907 93.2392 47.9907 96.7043C47.9907 100.169 50.7998 102.978 54.2649 102.978Z" fill="#C8C8C8"/>
<path d="M90.5071 102.978C93.9722 102.978 96.7813 100.169 96.7813 96.7043C96.7813 93.2392 93.9722 90.4301 90.5071 90.4301C87.042 90.4301 84.2329 93.2392 84.2329 96.7043C84.2329 100.169 87.042 102.978 90.5071 102.978Z" fill="#C8C8C8"/>
<path d="M123.332 11.1738H118.581V8.07219C118.581 3.62114 114.96 0 110.509 0C106.058 0 102.437 3.62114 102.437 8.07219V11.1741H89.6908V8.07219C89.6908 3.62114 86.0696 0 81.6186 0C77.1678 0 73.5466 3.62114 73.5466 8.07219V11.1741H60.7999V8.07219C60.7999 3.62114 57.1787 0 52.728 0C48.2772 0 44.656 3.62114 44.656 8.07219V11.1741H31.9095V8.07219C31.9095 3.62114 28.2884 0 23.8373 0C19.3866 0 15.7654 3.62114 15.7654 8.07219V11.1741H10.6705C4.78684 11.1738 0 15.9593 0 21.8417L0.00287891 107.182C0.00287891 113.065 4.78814 117.85 10.6703 117.85H123.331C129.213 117.85 133.998 113.065 133.998 107.182L134 21.8417C134 15.9593 129.214 11.1738 123.332 11.1738ZM107.672 8.07219C107.672 6.50737 108.945 5.23438 110.509 5.23438C112.074 5.23438 113.347 6.50737 113.347 8.07219V20.084C113.347 21.6489 112.074 22.9216 110.509 22.9216C108.945 22.9216 107.672 21.6486 107.672 20.084V8.07219ZM81.6186 5.23438C83.1834 5.23438 84.4564 6.50737 84.4564 8.07219L84.4556 20.083C84.4556 21.6237 83.158 22.9216 81.6186 22.9216C80.0773 22.9216 78.7813 21.6248 78.7813 20.083L78.781 8.07219C78.7813 6.50737 80.054 5.23438 81.6186 5.23438ZM49.8904 8.07219C49.8904 6.50737 51.1634 5.23438 52.728 5.23438C54.2925 5.23438 55.5655 6.50737 55.5655 8.07219V20.084C55.5655 21.6489 54.2925 22.9216 52.728 22.9216C51.1634 22.9216 49.8904 21.6486 49.8904 20.084V8.07219ZM23.8376 5.23438C25.4024 5.23438 26.6754 6.50737 26.6754 8.07219L26.6752 20.083C26.6752 21.6263 25.3791 22.9216 23.8379 22.9216C22.294 22.9216 21.0011 21.6269 21.0011 20.083L21.0003 8.07219C20.9998 6.50737 22.2728 5.23438 23.8376 5.23438ZM128.764 107.182C128.764 110.178 126.327 112.615 123.331 112.615H10.6703C7.67464 112.615 5.23725 110.178 5.23725 107.182V41.5677H84.905C86.3502 41.5677 87.5222 40.396 87.5222 38.9506C87.5222 37.5051 86.3502 36.3334 84.905 36.3334H5.23438V21.8417C5.23438 18.8456 7.67307 16.4082 10.6705 16.4082H15.7657V20.0838C15.7657 24.4741 19.4468 28.157 23.8379 28.157C28.2272 28.157 31.9098 24.4788 31.9098 20.0838V16.4082H44.6555V20.083C44.6555 24.5351 48.2764 28.1573 52.7269 28.1573C57.179 28.1573 60.8012 24.5353 60.8012 20.083V16.4082H73.5469V20.0838C73.5469 24.4778 77.229 28.157 81.6188 28.157C86.0094 28.157 89.691 24.4752 89.691 20.0838V16.4082H102.436V20.083C102.436 24.5351 106.058 28.1573 110.51 28.1573C114.961 28.1573 118.582 24.5353 118.582 20.083V16.4082H123.332C126.328 16.4082 128.766 18.8456 128.766 21.8417V36.3334H107.937C106.492 36.3334 105.32 37.5051 105.32 38.9506C105.32 40.396 106.492 41.5677 107.937 41.5677H128.764L128.764 107.182Z" fill="#9E9E9E"/>
<path d="M106.616 72.3391L108.285 74.0086H73.0234V65.9783C76.6527 64.8581 79.2976 61.4725 79.2976 57.4805C79.2976 52.578 75.309 48.5892 70.4062 48.5892C65.5035 48.5892 61.5151 52.5778 61.5151 57.4805C61.5151 61.4725 64.1598 64.8581 67.789 65.9783V74.0089H39.8267V65.9783C43.456 64.8581 46.1009 61.4725 46.1009 57.4805C46.1009 52.578 42.1123 48.5892 37.2096 48.5892C32.3068 48.5892 28.3182 52.5778 28.3182 57.4805C28.3182 61.4725 30.9631 64.8581 34.5924 65.9783V74.0089H21.436C19.9906 74.0089 18.8188 75.1806 18.8188 76.6261C18.8188 78.0715 19.9906 79.2432 21.436 79.2432H51.6475V88.2068C48.0183 89.327 45.3734 92.7126 45.3734 96.7046C45.3734 101.607 49.3619 105.596 54.2647 105.596C59.1675 105.596 63.1561 101.607 63.1561 96.7046C63.1561 92.7126 60.5112 89.327 56.8819 88.2068V79.2432H87.8898V88.2068C84.2606 89.327 81.6159 92.7126 81.6159 96.7046C81.6159 101.607 85.6042 105.596 90.507 105.596C95.4098 105.596 99.3984 101.607 99.3984 96.7046C99.3984 92.7126 96.7535 89.327 93.1242 88.2068V79.2432H108.286L106.616 80.913C105.594 81.935 105.594 83.5922 106.616 84.6142C107.624 85.6224 109.309 85.6224 110.318 84.6142L116.455 78.4767C117.462 77.4696 117.461 75.7817 116.455 74.7754L110.318 68.6381C109.295 67.6161 107.639 67.6161 106.616 68.6381C105.594 69.6599 105.594 71.3171 106.616 72.3391ZM70.4062 53.8235C72.4225 53.8235 74.0632 55.464 74.0632 57.4805C74.0632 59.4971 72.4225 61.1375 70.4062 61.1375C68.39 61.1375 66.7495 59.4971 66.7495 57.4805C66.7495 55.464 68.39 53.8235 70.4062 53.8235ZM37.2096 53.8235C39.2261 53.8235 40.8666 55.464 40.8666 57.4805C40.8666 59.4971 39.2261 61.1375 37.2096 61.1375C35.193 61.1375 33.5526 59.4971 33.5526 57.4805C33.5526 55.464 35.193 53.8235 37.2096 53.8235ZM54.2647 100.361C52.2482 100.361 50.6077 98.7206 50.6077 96.7041C50.6077 94.6875 52.2482 93.0471 54.2647 93.0471C56.2813 93.0471 57.9217 94.6875 57.9217 96.7041C57.9217 98.7206 56.281 100.361 54.2647 100.361ZM90.5068 100.361C88.4905 100.361 86.85 98.7206 86.85 96.7041C86.85 94.6875 88.4905 93.0471 90.5068 93.0471C92.523 93.0471 94.1638 94.6875 94.1638 96.7041C94.1638 98.7206 92.523 100.361 90.5068 100.361Z" fill="#9E9E9E"/>
<path d="M94.0044 39.9503C94.9055 42.1482 98.1589 42.0189 98.9045 39.7702C99.6418 37.5469 97.1693 35.5254 95.1311 36.6759C93.9978 37.3155 93.5032 38.7477 94.0044 39.9503Z" fill="#9E9E9E"/>
</svg>
